<?xml version="1.0" encoding="utf-8"?>
<!-- Generator: Adobe Illustrator 22.1.0, SVG Export Plug-In . SVG Version: 6.00 Build 0)  -->
<svg version="1.1" id="Icon_Set" xmlns="http://www.w3.org/2000/svg" xmlns:xlink="http://www.w3.org/1999/xlink" x="0px" y="0px"
	 viewBox="0 0 512 512" style="enable-background:new 0 0 512 512;" xml:space="preserve">
<style type="text/css">
	.st0{fill:#F0C48A;}
	.st1{fill:#FD919E;}
	.st2{fill:#4C4372;}
	.st3{fill:#D3E6F8;}
	.st4{fill:#A4CFF2;}
	.st5{fill:#7BABF1;}
	.st6{fill:#FFFFFF;}
	.st7{fill:#E8677D;}
	.st8{fill:none;stroke:#4C4372;stroke-width:12;stroke-linecap:round;stroke-linejoin:round;stroke-miterlimit:10;}
</style>
<g id="Brain">
	<g>
		<g>
			<circle class="st0" cx="256" cy="256" r="207"/>
		</g>
	</g>
	<g>
		<g>
			<path class="st1" d="M414.255,219.969c0-29.493-23.908-53.4-53.4-53.4c-0.611,0-1.216,0.025-1.821,0.045
				c-6.098-22.782-26.874-39.561-51.58-39.561c-11.097,0-21.402,3.387-29.942,9.18c-9.637-13.932-25.718-23.065-43.941-23.065
				c-19.831,0-37.124,10.818-46.335,26.865c-2.314-0.305-4.669-0.48-7.066-0.48c-27.173,0-49.59,20.301-52.95,46.562
				c-17.476,8.776-29.476,26.851-29.476,47.738c0,9.731,2.615,18.844,7.162,26.701c-4.91,8.483-7.567,18.433-7.111,29.041
				c1.159,26.979,22.732,49.131,49.675,50.936c15.414,1.032,29.538-4.485,39.883-14.038c9.24,15.937,26.471,26.664,46.218,26.664
				c14.339,0,27.348-5.664,36.941-14.86c9.594,9.196,22.602,14.86,36.941,14.86l25.766,40.583c2.984,4.7,9.015,6.419,14.029,3.999
				l19.624-9.474c5.441-2.627,7.734-9.16,5.127-14.611l-16.968-35.481c25.989-3.604,46.002-25.896,46.002-52.878
				c0-8.79-2.138-17.076-5.901-24.391C406.819,251.111,414.255,236.41,414.255,219.969z"/>
		</g>
		<g>
			<path class="st7" d="M372.001,373.658l-16.97-35.484c25.989-3.604,46.002-25.896,46.002-52.877
				c0-8.791-2.138-17.077-5.901-24.391c11.687-9.795,19.123-24.496,19.123-40.936c0-29.494-23.908-53.401-53.401-53.401
				c-0.611,0-1.216,0.026-1.821,0.046c-6.098-22.782-26.875-39.562-51.58-39.562c-9.517,0-18.448,2.497-26.186,6.861
				c1.264,4.72,2.646,9.881,4.163,15.55c35.644-11.5,52.252,10.464,59.129,25.215c2.972,6.374,9.248,10.49,16.278,10.676
				c12.752,0.338,31.425,5.859,34.295,34.579c3.675,36.78-31.39,50.76-31.39,50.76l17.416-2.835
				c5.314,31.508-12.222,45.521-28.026,51.738c-11.027,4.338-15.796,17.331-10.306,27.832l21.893,41.875l2.154-1.039
				C372.315,385.641,374.608,379.108,372.001,373.658z"/>
		</g>
		<g>
			<path class="st2" d="M342.49,404.832c-5.648,0-11.129-2.825-14.336-7.876l-24.058-37.892
				c-12.305-0.688-23.971-5.145-33.584-12.804c-10.483,8.353-23.408,12.897-36.941,12.897c-18.759,0-36.406-8.977-47.545-23.818
				c-11.217,8.187-24.802,12.134-38.957,11.178c-14.506-0.972-28.144-7.302-38.402-17.825
				c-10.253-10.518-16.243-24.311-16.866-38.839c-0.438-10.204,1.729-20.263,6.287-29.299c-4.158-8.257-6.343-17.418-6.343-26.7
				c0-21.547,11.418-41.045,30.007-51.615c5.097-27.97,29.674-48.686,58.419-48.686c1.289,0,2.606,0.046,3.94,0.138
				c10.961-16.452,29.566-26.522,49.46-26.522c17.592,0,34.187,7.808,45.423,21.136c8.695-4.759,18.428-7.251,28.46-7.251
				c25.286,0,47.687,16.054,55.999,39.571c31.552,1.367,56.802,27.463,56.802,59.345c0,16.053-6.44,31.262-17.817,42.408
				c3.053,7.255,4.597,14.944,4.597,22.919c0,26.766-18.131,50.072-43.298,57.172l13.677,28.598
				c4.022,8.409,0.465,18.549-7.932,22.603l-19.624,9.474C347.489,404.286,344.973,404.832,342.49,404.832z M270.513,332.298
				c1.496,0,2.991,0.557,4.152,1.669c8.873,8.507,20.518,13.191,32.789,13.191c2.054,0,3.965,1.051,5.065,2.784l25.766,40.582
				c1.352,2.129,4.087,2.91,6.355,1.812l19.624-9.474c2.459-1.187,3.501-4.155,2.323-6.617l-16.969-35.481
				c-0.826-1.728-0.778-3.745,0.129-5.431c0.906-1.687,2.563-2.838,4.46-3.102c23.274-3.228,40.826-23.405,40.826-46.935
				c0-7.61-1.762-14.893-5.236-21.646c-1.283-2.493-0.668-5.542,1.48-7.344c10.789-9.042,16.977-22.287,16.977-36.338
				c0-26.137-21.264-47.4-47.4-47.4c-0.456,0-0.908,0.017-1.36,0.032l-0.258,0.01c-2.783,0.075-5.277-1.748-5.999-4.445
				c-5.533-20.674-24.36-35.112-45.783-35.112c-9.531,0-18.72,2.816-26.574,8.145c-2.725,1.85-6.43,1.156-8.303-1.552
				c-8.868-12.822-23.45-20.478-39.006-20.478c-16.927,0-32.687,9.14-41.13,23.852c-1.212,2.111-3.594,3.281-5.989,2.962
				c-2.155-0.284-4.269-0.429-6.281-0.429c-23.78,0-43.985,17.766-46.999,41.324c-0.253,1.979-1.475,3.704-3.259,4.601
				c-16.141,8.104-26.168,24.343-26.168,42.376c0,8.317,2.197,16.512,6.354,23.696c1.076,1.859,1.075,4.151-0.001,6.011
				c-4.517,7.803-6.698,16.716-6.31,25.777c1.021,23.762,20.384,43.618,44.083,45.206c13.183,0.872,25.754-3.541,35.411-12.46
				c1.338-1.234,3.164-1.793,4.966-1.524c1.802,0.271,3.382,1.348,4.295,2.923c8.467,14.604,24.188,23.675,41.027,23.675
				c12.271,0,23.916-4.685,32.789-13.191C267.521,332.854,269.017,332.298,270.513,332.298z"/>
		</g>
		<g>
			<path class="st2" d="M104.901,266.547c-1.193,0-2.396-0.354-3.445-1.093c-2.704-1.904-3.361-5.631-1.465-8.34
				c0.213-0.305,5.317-7.522,14.046-13.719c11.968-8.498,25.059-11.108,37.845-7.557c3.193,0.887,5.062,4.194,4.176,7.387
				c-0.888,3.194-4.192,5.067-7.387,4.176c-9.228-2.562-18.446-0.683-27.407,5.581c-7.13,4.984-11.409,10.968-11.451,11.027
				C108.642,265.663,106.785,266.547,104.901,266.547z"/>
		</g>
		<g>
			<path class="st2" d="M293.344,178.919c-2.852,0-5.381-2.041-5.899-4.946c-3.438-19.248-14.58-33.94-14.692-34.087
				c-2.018-2.629-1.521-6.396,1.107-8.412c2.628-2.017,6.395-1.522,8.412,1.107c0.531,0.691,13.041,17.188,16.985,39.282
				c0.583,3.262-1.59,6.379-4.852,6.961C294.049,178.889,293.693,178.919,293.344,178.919z"/>
		</g>
		<g>
			<path class="st2" d="M270.514,344.298c-1.581,0-3.16-0.621-4.339-1.854c-2.284-2.391-2.203-6.177,0.177-8.468
				c0.226-0.222,11.707-11.676,13.097-30.497c0.243-3.305,3.088-5.801,6.425-5.542c3.305,0.243,5.786,3.12,5.542,6.425
				c-1.747,23.678-16.146,37.689-16.757,38.274C273.496,343.746,272.004,344.298,270.514,344.298z"/>
		</g>
		<g>
			<path class="st2" d="M365.049,276.725c-2.778,0-5.638-0.241-8.55-0.796c-3.255-0.619-5.391-3.761-4.771-7.017
				c0.618-3.254,3.752-5.395,7.017-4.771c17.01,3.236,32.703-7.977,32.86-8.089c2.683-1.949,6.434-1.353,8.381,1.326
				c1.948,2.682,1.354,6.434-1.326,8.381C397.956,266.271,383.326,276.725,365.049,276.725z"/>
		</g>
		<g>
			<path class="st2" d="M271.83,268.258c-3.313,0-6-2.687-6-6c0-14.574-11.857-26.432-26.432-26.432c-3.313,0-6-2.687-6-6
				s2.687-6,6-6c21.191,0,38.432,17.24,38.432,38.432C277.83,265.571,275.144,268.258,271.83,268.258z"/>
		</g>
		<g>
			<path class="st2" d="M311.572,242.32c-1.535,0-3.071-0.586-4.242-1.758c-10.306-10.304-27.072-10.306-37.38,0
				c-2.342,2.344-6.143,2.344-8.484,0c-2.344-2.343-2.344-6.142,0-8.484c14.982-14.983,39.366-14.985,54.349,0
				c2.344,2.343,2.344,6.142,0,8.484C314.644,241.734,313.107,242.32,311.572,242.32z"/>
		</g>
		<g>
			<path class="st2" d="M220.569,197.255c-1.535,0-3.071-0.586-4.242-1.758c-10.307-10.305-27.073-10.303-37.38,0
				c-2.342,2.344-6.143,2.344-8.484,0c-2.344-2.343-2.344-6.142,0-8.484c14.983-14.984,39.367-14.983,54.349,0
				c2.344,2.343,2.344,6.142,0,8.484C223.641,196.669,222.104,197.255,220.569,197.255z"/>
		</g>
	</g>
</g>
</svg>
