<svg xmlns="http://www.w3.org/2000/svg" width="1100" height="760" viewBox="0 0 1100 760">
  <defs>
    <filter id="rough" x="-20%" y="-20%" width="140%" height="140%">
      <feTurbulence type="fractalNoise" baseFrequency="0.9" numOctaves="1" result="noise"/>
      <feDisplacementMap in="SourceGraphic" in2="noise" scale="0.6" xChannelSelector="R" yChannelSelector="G"/>
    </filter>
    <style>
      @keyframes slideIn { from { transform: translateX(16px); opacity: .0 } to { transform: translateX(0); opacity: 1 } }
      @keyframes starFly { 0%{ transform: translate(0,0) scale(0.9) } 60%{ transform: translate(160px,-80px) scale(1) } 100%{ transform: translate(320px,-140px) scale(0.85) } }
      @keyframes blink { 0%,95%,100%{ opacity:0 } 30%,60%{ opacity:1 } }
      .card { animation: slideIn .9s ease .4s both }
      .star { transform-origin: center; animation: starFly 2.2s ease 1.2s both }
      .cursor { animation: blink 2.2s linear 1.2s both }
      .ink{ stroke:#111 }
      .muted{ stroke:#9ca3af }
      .soft-blue{ stroke:#93c5fd }
      .soft-green{ stroke:#86efac }
      .soft-red{ stroke:#fca5a5 }
    </style>
  </defs>

  <!-- Browser window -->
  <g filter="url(#rough)">
    <rect x="130" y="120" width="700" height="450" rx="18" fill="#ffffff" stroke="#111" stroke-width="6"/>
    <rect x="120" y="110" width="700" height="450" rx="18" fill="none" stroke="#111" stroke-width="3"/>
    <rect x="130" y="120" width="700" height="48" rx="18" fill="#f3f4f6" stroke="#111" stroke-width="3"/>
    <circle cx="160" cy="144" r="6" fill="#ef4444" stroke="#111" stroke-width="2"/>
    <circle cx="180" cy="144" r="6" fill="#f59e0b" stroke="#111" stroke-width="2"/>
    <circle cx="200" cy="144" r="6" fill="#10b981" stroke="#111" stroke-width="2"/>
  </g>

  <!-- Text lines to represent article -->
  <g stroke-width="3" opacity=".95">
    <path class="muted" d="M170 200 h 280"/>
    <path class="soft-blue" d="M170 230 h 450" opacity=".7"/>
    <path class="muted" d="M170 260 h 420" opacity=".7"/>
    <path class="soft-green" d="M170 290 h 470" opacity=".7"/>
    <path class="muted" d="M170 320 h 380" opacity=".7"/>
    <path class="soft-red" d="M170 350 h 440" opacity=".6"/>
    <path class="muted" d="M170 380 h 420" opacity=".7"/>
    <path class="soft-blue" d="M170 410 h 390" opacity=".6"/>
  </g>

  <!-- Highlighted word -->
  <rect x="260" y="230" width="110" height="26" rx="6" fill="#fff59e" stroke="#111" stroke-width="3"/>
  <text x="268" y="248" font-family="Kalam, 'Patrick Hand', sans-serif" font-size="20" fill="#111">eloquent</text>

  <!-- Definition side card -->
  <!-- solid background to fully cover underlying lines -->
  <rect x="615" y="205" width="270" height="230" rx="18" fill="#ffffff"/>
  <g class="card">
    <!-- hand-drawn double border with slight roughness -->
    <g filter="url(#rough)">
      <rect x="620" y="210" width="260" height="220" rx="16" fill="none" stroke="#111" stroke-width="5"/>
      <rect x="612" y="202" width="260" height="220" rx="16" fill="none" stroke="#111" stroke-width="3"/>
    </g>
    <text x="640" y="250" font-family="Kalam, 'Patrick Hand', sans-serif" font-size="28" fill="#111">eloquent</text>
    <text x="640" y="280" font-family="'Patrick Hand', cursive" font-size="16" fill="#6b7280">adjective</text>
    <!-- wrapped description using tspans to avoid overflow -->
    <text x="640" y="310" font-family="'Patrick Hand', cursive" font-size="18" fill="#111" font-style="italic">
      <tspan x="640" dy="0">fluent or persuasive in</tspan>
      <tspan x="640" dy="22">speech or writing</tspan>
    </text>
    <g transform="translate(640 342)">
      <rect x="0" y="0" width="140" height="36" rx="12" fill="#fef3c7" stroke="#111" stroke-width="3"/>
      <text x="14" y="24" font-family="'Patrick Hand', cursive" font-size="18" fill="#111">Save word ★</text>
    </g>
  </g>

  <!-- Star flying to a notebook to suggest saving -->
  <g class="star" filter="url(#rough)">
    <path d="M0 -10 L4 -3 L12 -2 L6 3 L8 10 L0 6 L-8 10 L-6 3 L-12 -2 L-4 -3 Z" fill="#fbbf24" stroke="#111" stroke-width="3" transform="translate(720 360)"/>
  </g>

  <!-- Notebook -->
  <g filter="url(#rough)">
    <rect x="860" y="120" width="140" height="180" rx="14" fill="#ffffff" stroke="#111" stroke-width="5"/>
    <line x1="870" y1="160" x2="990" y2="160" class="soft-blue" stroke-width="3"/>
    <line x1="870" y1="190" x2="990" y2="190" class="soft-blue" stroke-width="3"/>
    <line x1="870" y1="220" x2="990" y2="220" class="soft-blue" stroke-width="3"/>
    <text x="878" y="145" font-family="Kalam, 'Patrick Hand', sans-serif" font-size="18" fill="#111">Saved</text>
  </g>

  <!-- Blinking caret near the word -->
  <rect class="cursor" x="376" y="226" width="3" height="30" fill="#111"/>
</svg>


