<?xml version="1.0" encoding="utf-8"?>
<!-- Generator: Adobe Illustrator 22.1.0, SVG Export Plug-In . SVG Version: 6.00 Build 0)  -->
<svg version="1.1" id="Layer_1" xmlns="http://www.w3.org/2000/svg" xmlns:xlink="http://www.w3.org/1999/xlink" x="0px" y="0px"
	 viewBox="0 0 256 256" style="enable-background:new 0 0 256 256;" xml:space="preserve">
<style type="text/css">
	.st0{fill:#231F20;}
	.st1{fill:#FFEFE4;}
	.st2{fill:#69EBFC;}
	.st3{fill:#5FD4E3;}
	.st4{fill:#A1F1FC;}
	.st5{fill:#D476E2;}
	.st6{fill:#B665C2;}
	.st7{fill:#EA82FA;}
	.st8{fill:#FFF7F2;}
	.st9{fill:#FF8354;}
	.st10{fill:#FFA172;}
	.st11{fill:#6770E6;}
	.st12{fill:#5861C7;}
	.st13{fill:#E0734A;}
	.st14{fill:#EDD4C2;}
	.st15{fill:#CC6944;}
	.st16{fill:#858EFF;}
	.st17{fill:#C76642;}
	.st18{fill:#FFFFFF;}
	.st19{fill:#FFDEC7;}
	.st20{fill:#4E56B0;}
	.st21{fill:#94529E;}
	.st22{fill:#41B6C5;}
	.st23{fill:#9847A4;}
	.st24{fill:#C2552C;}
	.st25{fill:#CFB6A4;}
</style>
<g>
	<path class="st11" d="M256,68h-47c-18.748,0-34-15.252-34-34c0-9.925-8.075-18-18-18H99c-9.925,0-18,8.075-18,18v26H65V34
		C65,15.252,80.252,0,99,0h58c18.748,0,34,15.252,34,34c0,9.925,8.075,18,18,18h47V68z"/>
	<path class="st16" d="M209,52c-9.925,0-18-8.075-18-18c0-18.748-15.252-34-34-34H99C80.252,0,65,15.252,65,34v6
		C65,21.252,80.252,6,99,6h58c18.748,0,34,15.252,34,34c0,9.925,8.075,18,18,18h47v-6H209z"/>
	<path class="st12" d="M91,63H55v-4c0-4.418,3.582-8,8-8h20c4.418,0,8,3.582,8,8V63z"/>
	<path class="st5" d="M146,130H0v-6c0-35.346,28.654-64,64-64h18c35.346,0,64,28.654,64,64V130z"/>
	<path class="st2" d="M73,130H0v-6c0-35.346,28.654-64,64-64h9V130z"/>
	<path class="st11" d="M82,256H64c-35.346,0-64-28.654-64-64v-62h146v62C146,227.346,117.346,256,82,256z"/>
	<path class="st12" d="M82,250H64c-35.346,0-64-28.654-64-64v6c0,35.346,28.654,64,64,64h18c35.346,0,64-28.654,64-64v-6
		C146,221.346,117.346,250,82,250z"/>
	<path class="st16" d="M73,165L73,165c-9.941,0-18-8.059-18-18v-34c0-9.941,8.059-18,18-18h0c9.941,0,18,8.059,18,18v34
		C91,156.941,82.941,165,73,165z"/>
	<path class="st9" d="M220.654,208.842l31.981-5.954c3.982-0.741,4.612-6.182,0.905-7.814l-94.753-41.712
		c-3.437-1.513-6.939,1.989-5.426,5.426l41.712,94.753c1.632,3.707,7.073,3.076,7.814-0.905l5.516-29.626l31.778,30.398
		c1.812,1.734,4.139,2.594,6.463,2.594c2.464,0,4.923-0.967,6.761-2.888c3.569-3.733,3.438-9.653-0.294-13.223L220.654,208.842z"/>
	<path class="st13" d="M201.804,217.01l-5.516,29.626c-0.316,1.697-1.488,2.779-2.853,3.182l1.639,3.722
		c1.632,3.707,7.073,3.076,7.814-0.905l5.466-29.359L201.804,217.01z"/>
	<path class="st13" d="M246.636,196.888l-31.981,5.954l6.228,5.958l31.753-5.912c3.982-0.741,4.612-6.183,0.905-7.814l-3.602-1.586
		C249.688,195.077,248.556,196.53,246.636,196.888z"/>
	<path class="st13" d="M248.336,235.32c2.483,3.577,2.196,8.523-0.93,11.792c-1.838,1.921-4.296,2.888-6.761,2.888
		c-1.77,0-3.888-0.502-5.598-1.506l5.136,4.912c1.812,1.734,4.139,2.594,6.463,2.594c2.464,0,4.923-0.967,6.761-2.888
		c3.569-3.733,3.438-9.653-0.294-13.223L248.336,235.32z"/>
</g>
</svg>
